<svg id="Capa_1" enable-background="new 0 0 508 508" height="512" viewBox="0 0 508 508" width="512" xmlns="http://www.w3.org/2000/svg"><g><path d="m205 148c0-5.522 4.478-10 10-10h49.5c5.522 0 10 4.478 10 10s-4.478 10-10 10h-49.5c-5.522 0-10-4.478-10-10zm134.057-32h-29.057c-5.522 0-10-4.478-10-10s4.478-10 10-10h70c28.673 0 52 23.327 52 52s-23.327 52-52 52h-126c-5.522 0-10-4.478-10-10s4.478-10 10-10h85.057c-4.956-6.327-11.057-17.355-11.057-32s6.101-25.673 11.057-32zm8.943 32c0 20.871 17.847 32 32 32 17.645 0 32-14.355 32-32s-14.355-32-32-32c-14.153 0-32 11.129-32 32zm-220 32c-11.38 0-21.998-6.125-27.712-15.985-2.768-4.777-8.886-6.406-13.666-3.639-4.778 2.77-6.407 8.888-3.639 13.666 9.279 16.012 26.528 25.958 45.017 25.958 13.565 0 13.565-20 0-20zm-27.746-47.957c5.693-9.873 16.299-16.021 27.679-16.043 5.522-.011 9.991-4.497 9.98-10.02-.011-5.517-4.485-9.98-10-9.98h-.02c-18.49.036-35.72 10.018-44.966 26.053-6.659 11.551 10.667 21.541 17.327 9.99zm59.746 15.957c0 5.591-1.459 11.089-4.22 15.897-6.626 11.542 10.72 21.499 17.346 9.957 4.497-7.835 6.874-16.775 6.874-25.855-.001-9.191-2.435-18.229-7.038-26.135-2.777-4.772-8.9-6.391-13.673-3.61-4.773 2.778-6.39 8.9-3.61 13.673 2.826 4.855 4.32 10.413 4.321 16.073zm93.979 304c-5.52 0-10 4.49-10 10s4.48 10 10 10c5.511 0 10-4.49 10-10s-4.489-10-10-10zm254.021-376v264c0 22.056-17.944 40-40 40h-149.358l4.897 39.17c.279 2.096 1.61 3.587 2.98 3.99 6.976 2.05 14.964 6.679 20.77 14.4 5.332 7.091 8.21 15.52 8.21 24.44 0 5.839-4.839 10-10 10h-46.52c-5.52 0-10-4.49-10-10s4.48-10 10-10h33.92c-2.6-4.63-7.009-8.089-12.06-9.66-10.324-3.211-15.888-11.678-17.15-20.68l-5.207-41.66h-88.965l-5.207 41.66c-1.439 10.34-8.084 17.856-17.15 20.68-5.051 1.573-9.46 5.03-12.06 9.66h33.88c5.51 0 10 4.49 10 10s-4.49 10-10 10h-46.48c-5.5 0-10-4.484-10-10 0-8.92 2.847-17.372 8.21-24.44 6.129-8.076 14.064-12.431 20.77-14.4 1.497-.439 2.706-2.015 2.98-3.98l4.897-39.18h-149.357c-22.056 0-40-17.944-40-40v-264c0-22.056 17.944-40 40-40h428c22.056 0 40 17.944 40 40zm-208 224h-168v20h168zm-188 20v-60h-92v60zm376-40v-20h-356v20zm-468-204v164h468v-164c0-11.028-8.972-20-20-20h-428c-11.028 0-20 8.972-20 20zm468 264h-468c0 11.028 8.972 20 20 20h428c11.028 0 20-8.972 20-20zm0-20v-20h-168v20z"/></g></svg>