<svg id="Capa_1" enable-background="new 0 0 512 512" height="512" viewBox="0 0 512 512" width="512" xmlns="http://www.w3.org/2000/svg"><g><path d="m407.582 227.794v-227.794h-341.013c-36.228 0-65.702 29.473-65.702 65.702v381.663l.267-.318c3.019 36.016 33.277 64.953 70.06 64.953h294.795c80.033 0 145.145-65.111 145.145-145.145-.001-65.582-43.726-121.134-103.552-139.061zm-29.945-5.615c-3.844-.307-7.728-.468-11.649-.468-80.033 0-145.146 65.111-145.146 145.145 0 1.32.02 2.635.055 3.947h-99.794v-340.858h256.533v192.234zm-311.068-192.234h24.59v340.857h-19.965c-15.02 0-28.944 4.749-40.381 12.802v-317.902c-.001-19.717 16.039-35.757 35.756-35.757zm4.625 451.565c-22.266 0-40.381-18.115-40.381-40.381s18.115-40.381 40.381-40.381h153.654c2.103 8.757 4.997 17.208 8.611 25.271h-156.708v29.945h174.746c7.44 9.538 16.044 18.123 25.596 25.546zm294.794.545c-63.521 0-115.2-51.678-115.2-115.199 0-63.522 51.679-115.199 115.2-115.199s115.199 51.678 115.199 115.199c.001 63.521-51.677 115.199-115.199 115.199z"/><path d="m200.983 88.171h100.22v29.945h-100.22z"/><path d="m167.13 153.181h167.926v29.945h-167.926z"/><path d="m365.988 308.864c-31.473 0-61.552 13.538-82.527 37.141l22.385 19.891c15.296-17.215 37.217-27.087 60.142-27.087 22.924 0 44.845 9.873 60.142 27.087l22.385-19.891c-20.975-23.603-51.055-37.141-82.527-37.141z"/><path d="m321.113 383.661 19.416 22.798c7.107-6.052 16.148-9.385 25.459-9.385 9.392 0 18.495 3.385 25.63 9.532l19.544-22.689c-12.569-10.826-28.612-16.789-45.174-16.789-16.419 0-32.356 5.871-44.875 16.533z"/></g></svg>