<svg id="Layer_3" enable-background="new 0 0 64 64" height="512" viewBox="0 0 64 64" width="512" xmlns="http://www.w3.org/2000/svg"><g><path d="m62 10h-25c-.553 0-1 .447-1 1v6h-3.688c.446-1.258.688-2.606.688-4 0-6.617-5.383-12-12-12s-12 5.383-12 12c0 1.394.242 2.742.688 4h-2.688c-3.309 0-6 2.691-6 6v24c0 3.309 2.691 6 6 6h13v4h-1c-2.206 0-4 1.794-4 4v1c0 .553.447 1 1 1h18c.553 0 1-.447 1-1v-1c0-2.206-1.794-4-4-4h-1v-4h6v9c0 .553.447 1 1 1h25c.553 0 1-.447 1-1v-51c0-.553-.447-1-1-1zm-41-7c5.514 0 10 4.486 10 10 0 4.777-3.401 8.904-8.087 9.812-.305.059-.565.256-.704.534l-1.209 2.419-1.209-2.418c-.139-.278-.399-.476-.704-.534-4.686-.909-8.087-5.036-8.087-9.813 0-5.514 4.486-10 10-10zm-14 16h3.621c1.614 2.786 4.318 4.892 7.596 5.67l1.889 3.777c.169.339.515.553.894.553s.725-.214.895-.553l1.889-3.777c3.278-.778 5.982-2.884 7.596-5.67h11.62c2.206 0 4 1.794 4 4v20h-44v-20c0-2.206 1.794-4 4-4zm42 5h8v2h-8zm0 8h8v2h-8zm0 15v-7h8v17h-15v-4h1c3.309 0 6-2.691 6-6zm-46 0v-2h44v2c0 2.206-1.794 4-4 4h-36c-2.206 0-4-1.794-4-4zm30 14h-16c0-1.103.897-2 2-2h12c1.103 0 2 .897 2 2zm-5-4h-6v-4h6zm33 4h-23v-8h2v5c0 .553.447 1 1 1h17c.553 0 1-.447 1-1v-19c0-.553-.447-1-1-1h-9v-2h9c.553 0 1-.447 1-1v-4c0-.553-.447-1-1-1h-9v-2h9c.553 0 1-.447 1-1v-4c0-.553-.447-1-1-1h-9.09c-.478-2.833-2.942-5-5.91-5h-5v-5h23z"/><path d="m39 47h4v2h-4z"/><path d="m56 20c1.654 0 3-1.346 3-3s-1.346-3-3-3-3 1.346-3 3 1.346 3 3 3zm0-4c.552 0 1 .448 1 1s-.448 1-1 1-1-.448-1-1 .448-1 1-1z"/><path d="m15 16h3v3c0 .553.447 1 1 1h4c.553 0 1-.447 1-1v-3h3c.553 0 1-.447 1-1v-4c0-.553-.447-1-1-1h-3v-3c0-.553-.447-1-1-1h-4c-.553 0-1 .447-1 1v3h-3c-.553 0-1 .447-1 1v4c0 .553.447 1 1 1zm1-4h3c.553 0 1-.447 1-1v-3h2v3c0 .553.447 1 1 1h3v2h-3c-.553 0-1 .447-1 1v3h-2v-3c0-.553-.447-1-1-1h-3z"/></g></svg>