<svg id="Line" height="512" viewBox="0 0 64 64" width="512" xmlns="http://www.w3.org/2000/svg"><path d="m60 20h-44a3 3 0 0 0 -3 3v24a3 3 0 0 0 3 3h18v6.445l-7.53 4.707a1 1 0 0 0 .944 1.758l10.586-4.81 10.586 4.81a1 1 0 0 0 .944-1.758l-7.53-4.707v-6.445h18a3 3 0 0 0 3-3v-24a3 3 0 0 0 -3-3zm-31 6a4 4 0 1 1 -4 4 4 4 0 0 1 4-4zm-3.68 18a2.323 2.323 0 0 1 -2.32-2.32v-4.36a2.312 2.312 0 0 1 3.5-1.993 5.072 5.072 0 0 0 5 0 2.355 2.355 0 0 1 1.179-.327 2.323 2.323 0 0 1 2.321 2.32v4.36a2.323 2.323 0 0 1 -2.32 2.32zm14.68 12h-4v-6h4zm13-22.92a2.923 2.923 0 0 1 -2.92 2.92h-13.08a1 1 0 0 1 -.8-1.6l2.8-3.733v-1.747a2.923 2.923 0 0 1 2.92-2.92h8.16a2.923 2.923 0 0 1 2.92 2.92z" fill="#c4a2fc"/><g fill="#151a6a"><path d="m2 15a1 1 0 0 0 1-1v-10a1 1 0 0 1 1-1h10a1 1 0 0 0 0-2h-10a3 3 0 0 0 -3 3v10a1 1 0 0 0 1 1z"/><path d="m48 1h-10a1 1 0 0 0 0 2h10a1 1 0 0 1 1 1v10a1 1 0 0 0 2 0v-10a3 3 0 0 0 -3-3z"/><path d="m50 37a1 1 0 0 0 -1 1v10a1 1 0 0 1 -1 1h-10a1 1 0 0 0 0 2h10a3 3 0 0 0 3-3v-10a1 1 0 0 0 -1-1z"/><path d="m14 49h-10a1 1 0 0 1 -1-1v-10a1 1 0 0 0 -2 0v10a3 3 0 0 0 3 3h10a1 1 0 0 0 0-2z"/><path d="m11 18a6 6 0 1 0 6-6 6.006 6.006 0 0 0 -6 6zm6-4a4 4 0 1 1 -4 4 4 4 0 0 1 4-4z"/><path d="m29 22h14a3 3 0 0 0 3-3v-7a3 3 0 0 0 -3-3h-9a3 3 0 0 0 -3 3v3.723l-2.857 4.762a1 1 0 0 0 .857 1.515zm3.857-5.485a1 1 0 0 0 .143-.515v-4a1 1 0 0 1 1-1h9a1 1 0 0 1 1 1v7a1 1 0 0 1 -1 1h-12.234z"/><path d="m46 42a1 1 0 0 0 -1-1h-19.12a2.746 2.746 0 0 0 .12-.762v-13.476a2.76 2.76 0 0 0 -4.395-2.224 8.106 8.106 0 0 1 -9.211 0 2.76 2.76 0 0 0 -4.394 2.224v13.476a2.746 2.746 0 0 0 .12.762h-1.12a1 1 0 0 0 0 2h38a1 1 0 0 0 1-1zm-35.238-1a.763.763 0 0 1 -.762-.762v-13.476a.76.76 0 0 1 1.24-.592 9.981 9.981 0 0 0 11.519 0 .761.761 0 0 1 1.241.592v13.476a.763.763 0 0 1 -.762.762z"/></g></svg>