<?xml version="1.0"?>
<svg xmlns="http://www.w3.org/2000/svg" viewBox="0 0 64 64" width="512" height="512"><g id="provider"><path d="M26.64,56.36a.987.987,0,0,0-.76-.36H25V45a3.009,3.009,0,0,0-3-3H6a3.009,3.009,0,0,0-3,3V56H2.12a1,1,0,0,0-.98,1.17l.46,2.56a.359.359,0,0,0,.02.11A3.021,3.021,0,0,0,4.5,62h19a3.021,3.021,0,0,0,2.88-2.16.359.359,0,0,0,.02-.11l.46-2.56A.986.986,0,0,0,26.64,56.36ZM5,45a1,1,0,0,1,1-1H22a1,1,0,0,1,1,1V56H16a1,1,0,0,0-1,1H13a1,1,0,0,0-1-1H5ZM24.45,59.32a1.014,1.014,0,0,1-.95.68H4.5a1.014,1.014,0,0,1-.95-.68L3.32,58H11a1,1,0,0,0,1,1h4a1,1,0,0,0,1-1h7.68Z"/><path d="M62.642,56.358A1,1,0,0,0,61.875,56H61V45a3,3,0,0,0-3-3H42a3,3,0,0,0-3,3V56h-.875a1,1,0,0,0-.984,1.175l.455,2.56a.891.891,0,0,0,.024.105A3.016,3.016,0,0,0,40.5,62h19a3.016,3.016,0,0,0,2.88-2.16.891.891,0,0,0,.024-.105l.455-2.56A1,1,0,0,0,62.642,56.358ZM41,45a1,1,0,0,1,1-1H58a1,1,0,0,1,1,1V56H52a1,1,0,0,0-1,1H49a1,1,0,0,0-1-1H41ZM60.446,59.323A1,1,0,0,1,59.5,60h-19a1,1,0,0,1-.946-.677L39.318,58H47a1,1,0,0,0,1,1h4a1,1,0,0,0,1-1h7.682Z"/><path d="M32,25a4,4,0,1,0,4,4A4,4,0,0,0,32,25Zm0,6a2,2,0,1,1,2-2A2,2,0,0,1,32,31Z"/><path d="M49,18h-.21A10.792,10.792,0,0,0,50,13a11,11,0,0,0-21.67-2.67A8.488,8.488,0,0,0,14,16.5a3.507,3.507,0,0,0,.4,1.53A6,6,0,0,0,15,30h8v1a1,1,0,0,0,.76.97l.67.17-.36.59a1,1,0,0,0,.15,1.22l2.83,2.83a1.012,1.012,0,0,0,1.22.15l.59-.36.17.67A1,1,0,0,0,30,38h4a1,1,0,0,0,.97-.76l.17-.67.59.36a1.014,1.014,0,0,0,1.22-.15l2.83-2.83a1,1,0,0,0,.15-1.22l-.36-.59.67-.17A1,1,0,0,0,41,31V30h8a6,6,0,0,0,0-12ZM39,30.22l-1.22.3a1.007,1.007,0,0,0-.68.59.989.989,0,0,0,.07.9l.64,1.08-1.72,1.72-1.08-.65a1.019,1.019,0,0,0-.9-.06,1.007,1.007,0,0,0-.59.68L33.22,36H30.78l-.3-1.22a1.007,1.007,0,0,0-.59-.68,1.019,1.019,0,0,0-.9.06l-1.08.65-1.72-1.72.64-1.08a.989.989,0,0,0,.07-.9,1.007,1.007,0,0,0-.68-.59L25,30.22V27.78l1.22-.3a1.007,1.007,0,0,0,.68-.59.989.989,0,0,0-.07-.9l-.64-1.08,1.72-1.72,1.08.64a.989.989,0,0,0,.9.07,1.007,1.007,0,0,0,.59-.68l.3-1.22h2.44l.3,1.22a1.007,1.007,0,0,0,.59.68.989.989,0,0,0,.9-.07l1.08-.64,1.72,1.72-.64,1.08a.989.989,0,0,0-.07.9,1.007,1.007,0,0,0,.68.59l1.22.3ZM49,28H41V27a1,1,0,0,0-.76-.97l-.67-.17.36-.59a1,1,0,0,0-.15-1.22l-2.83-2.83a1.014,1.014,0,0,0-1.22-.15l-.59.36-.17-.67A1,1,0,0,0,34,20H30a1,1,0,0,0-.97.76l-.17.67-.59-.36a1.014,1.014,0,0,0-1.22.15l-2.83,2.83a1,1,0,0,0-.15,1.22l.36.59-.67.17A1,1,0,0,0,23,27v1H15a4,4,0,0,1,0-8h1a1.014,1.014,0,0,0,.82-.42,1.035,1.035,0,0,0,.12-.92,6.909,6.909,0,0,0-.47-.99A3.068,3.068,0,0,1,16,16.5a6.492,6.492,0,0,1,12.14-3.21,1,1,0,0,0,1.87-.48A9,9,0,1,1,46.19,18.4a1,1,0,0,0,.8,1.6H49a4,4,0,0,1,0,8Z"/><rect x="42" y="32" width="2" height="2"/><path d="M51,40V33a1,1,0,0,0-1-1H46v2h3v6Z"/><rect x="20" y="32" width="2" height="2"/><path d="M18,34V32H14a1,1,0,0,0-1,1v7h2V34Z"/><path d="M44,13h2a7.008,7.008,0,0,0-7-7V8A5.006,5.006,0,0,1,44,13Z"/><path d="M18.03,15.976l1.987.232A2.5,2.5,0,0,1,22.5,14V12A4.5,4.5,0,0,0,18.03,15.976Z"/></g></svg>
